<svg width="25" height="25" viewBox="0 0 25 25" fill="none" xmlns="http://www.w3.org/2000/svg">
<path d="M2.86475 11.4484V17.9687C2.86475 19.0738 3.30373 20.1336 4.08513 20.915C4.86654 21.6964 5.92634 22.1354 7.03141 22.1354H17.9689C19.074 22.1354 20.1338 21.6964 20.9152 20.915C21.6966 20.1336 22.1356 19.0738 22.1356 17.9687V8.39685" stroke="#39507B" stroke-width="0.5" stroke-linecap="round" stroke-linejoin="round"/>
<path d="M12.5 7.23962C13.7081 7.23962 14.6875 6.26025 14.6875 5.05212C14.6875 3.844 13.7081 2.86462 12.5 2.86462C11.2919 2.86462 10.3125 3.844 10.3125 5.05212C10.3125 6.26025 11.2919 7.23962 12.5 7.23962Z" stroke="#39507B" stroke-width="0.5" stroke-linecap="round" stroke-linejoin="round"/>
<path d="M2.86475 8.39685H22.1356M2.86475 15.5974H22.1356M21.6512 8.39685C18.497 8.39685 17.995 11.1271 15.0189 11.1271C12.0429 11.1271 12.1246 10.3021 8.94495 10.3021C5.76527 10.3021 6.30381 11.6239 2.86475 11.4479M7.0486 15.5974C8.2387 15.5974 9.22777 16.9411 10.4512 17.3802C11.6632 17.8156 13.0502 17.1 14.3132 17.1708C16.5679 17.2979 16.3944 18.0359 18.1887 18.0354C20.0965 18.0344 20.758 17.2734 22.1356 17.0041" stroke="#39507B" stroke-width="0.5" stroke-linecap="round" stroke-linejoin="round"/>
</svg>
