<svg width="79" height="79" viewBox="0 0 79 79" fill="none" xmlns="http://www.w3.org/2000/svg">
<path d="M67.5083 28.1269C64.6094 28.2041 61.798 27.1297 59.6895 25.1388C57.5811 23.1478 56.3473 20.4026 56.2583 17.5041C56.3107 15.4346 56.9474 13.4221 58.0949 11.6991L65.1739 1.16625C65.4459 0.804104 65.7984 0.510202 66.2036 0.307788C66.6087 0.105374 67.0554 0 67.5083 0C67.9612 0 68.4079 0.105374 68.813 0.307788C69.2182 0.510202 69.5707 0.804104 69.8427 1.16625L76.8317 11.5613C78.0263 13.3185 78.6947 15.3802 78.7583 17.5041C78.6693 20.4026 77.4355 23.1478 75.3271 25.1388C73.2186 27.1297 70.4072 28.2041 67.5083 28.1269ZM67.5083 7.77281L62.8508 14.7C62.2688 15.5239 61.9332 16.4965 61.8833 17.5041C62.0465 18.8813 62.7093 20.1507 63.7461 21.0718C64.7828 21.9929 66.1215 22.5017 67.5083 22.5017C68.8951 22.5017 70.2338 21.9929 71.2705 21.0718C72.3073 20.1507 72.9701 18.8813 73.1333 17.5041C73.0703 16.4419 72.7043 15.42 72.0786 14.5594L67.5083 7.77281ZM60.477 78.7519H18.2896C13.7588 78.7567 9.38781 77.0779 6.02521 74.0413C2.66261 71.0047 0.548272 66.827 0.0926532 62.3191C-0.362966 57.8113 0.87264 53.295 3.5596 49.647C6.24656 45.9989 10.1932 43.4794 14.6333 42.5775C15.8317 36.9013 18.9448 31.8095 23.4509 28.1555C27.9569 24.5015 33.5819 22.5074 39.3833 22.5074C45.1847 22.5074 50.8097 24.5015 55.3157 28.1555C59.8218 31.8095 62.9349 36.9013 64.1333 42.5775C68.5734 43.4794 72.52 45.9989 75.207 49.647C77.894 53.295 79.1296 57.8113 78.674 62.3191C78.2183 66.827 76.104 71.0047 72.7414 74.0413C69.3788 77.0779 65.0078 78.7567 60.477 78.7519ZM39.3833 28.1269C34.5815 28.1314 29.9469 29.8907 26.3516 33.0737C22.7563 36.2566 20.4482 40.6438 19.8617 45.4097L19.5805 47.6934L17.2883 47.8734C14.0237 48.122 10.9828 49.6271 8.80527 52.0721C6.62779 54.5171 5.48354 57.7114 5.61325 60.9829C5.74295 64.2544 7.13651 67.3481 9.50073 69.613C11.865 71.8779 15.0155 73.1376 18.2896 73.1269H60.477C63.7511 73.1376 66.9016 71.8779 69.2659 69.613C71.6301 67.3481 73.0237 64.2544 73.1534 60.9829C73.2831 57.7114 72.1388 54.5171 69.9613 52.0721C67.7839 49.6271 64.7429 48.122 61.4783 47.8734L59.1861 47.6934L58.9077 45.4097C58.3199 40.6438 56.0111 36.2569 52.4155 33.0741C48.8199 29.8913 44.1853 28.1319 39.3833 28.1269Z" fill="#345B92"/>
</svg>
