<svg width="72" height="72" viewBox="0 0 72 72" fill="none" xmlns="http://www.w3.org/2000/svg">
<path d="M58.5 67.5H49.5C48.3076 67.4964 47.1651 67.0212 46.322 66.1781C45.4788 65.3349 45.0036 64.1924 45 63V47.25C43.8076 47.2464 42.6651 46.7712 41.822 45.9281C40.9788 45.0849 40.5036 43.9424 40.5 42.75V29.25C40.4838 28.3591 40.6474 27.4741 40.9809 26.6479C41.3144 25.8216 41.811 25.0711 42.441 24.441C43.0711 23.811 43.8216 23.3144 44.6479 22.9809C45.4741 22.6474 46.3591 22.4838 47.25 22.5H60.75C61.6409 22.4838 62.5259 22.6474 63.3521 22.9809C64.1784 23.3144 64.929 23.811 65.559 24.441C66.189 25.0711 66.6857 25.8216 67.0191 26.6479C67.3526 27.4741 67.5162 28.3591 67.5 29.25V42.75C67.4965 43.9424 67.0212 45.0849 66.1781 45.9281C65.3349 46.7712 64.1924 47.2464 63 47.25V63C62.9965 64.1924 62.5212 65.3349 61.6781 66.1781C60.8349 67.0212 59.6924 67.4964 58.5 67.5ZM47.25 27C46.9498 26.982 46.6492 27.0278 46.3681 27.1345C46.0869 27.2412 45.8316 27.4063 45.6189 27.6189C45.4063 27.8316 45.2412 28.0869 45.1345 28.3681C45.0278 28.6492 44.982 28.9498 45 29.25V42.75H49.5V63H58.5V42.75H63V29.25C63.0181 28.9498 62.9722 28.6492 62.8655 28.3681C62.7588 28.0869 62.5937 27.8316 62.3811 27.6189C62.1684 27.4063 61.9131 27.2412 61.6319 27.1345C61.3508 27.0278 61.0502 26.982 60.75 27H47.25ZM54 20.25C52.22 20.25 50.4799 19.7222 48.9999 18.7332C47.5198 17.7443 46.3663 16.3387 45.6851 14.6942C45.0039 13.0496 44.8257 11.24 45.1729 9.49419C45.5202 7.74836 46.3774 6.14472 47.6361 4.88604C48.8947 3.62737 50.4984 2.7702 52.2442 2.42294C53.99 2.07567 55.7996 2.2539 57.4442 2.93509C59.0887 3.61628 60.4943 4.76983 61.4832 6.24987C62.4722 7.72991 63 9.46997 63 11.25C62.9941 13.6351 62.044 15.9209 60.3574 17.6074C58.6709 19.2939 56.3851 20.2441 54 20.25ZM54 6.75C53.11 6.75 52.24 7.01392 51.4999 7.50839C50.7599 8.00286 50.1831 8.70566 49.8426 9.52793C49.502 10.3502 49.4128 11.255 49.5865 12.1279C49.7601 13.0008 50.1887 13.8026 50.818 14.432C51.4474 15.0613 52.2492 15.4899 53.1221 15.6635C53.995 15.8372 54.8998 15.7481 55.7221 15.4075C56.5444 15.0669 57.2472 14.4901 57.7416 13.7501C58.2361 13.01 58.5 12.14 58.5 11.25C58.4965 10.0576 58.0212 8.9151 57.1781 8.07196C56.3349 7.22882 55.1924 6.75357 54 6.75ZM22.5 45.414V27H18V45.414C16.4988 45.9448 15.2335 46.9892 14.4278 48.3626C13.6222 49.736 13.328 51.35 13.5972 52.9194C13.8665 54.4888 14.6819 55.9124 15.8993 56.9387C17.1167 57.9651 18.6577 58.528 20.25 58.528C21.8423 58.528 23.3833 57.9651 24.6007 56.9387C25.8182 55.9124 26.6335 54.4888 26.9028 52.9194C27.1721 51.35 26.8779 49.736 26.0722 48.3626C25.2665 46.9892 24.0012 45.9448 22.5 45.414Z" fill="#345B92"/>
<path d="M20.25 67.5C17.1494 67.5035 14.117 66.5908 11.5334 64.8766C8.94977 63.1624 6.93021 60.7231 5.72831 57.865C4.52641 55.0069 4.19573 51.8573 4.77781 48.8119C5.35989 45.7665 6.82877 42.9609 9 40.7475V15.75C9 12.7663 10.1853 9.90483 12.2951 7.79505C14.4048 5.68526 17.2663 4.5 20.25 4.5C23.2337 4.5 26.0952 5.68526 28.205 7.79505C30.3147 9.90483 31.5 12.7663 31.5 15.75V40.7475C33.6712 42.9609 35.1401 45.7665 35.7222 48.8119C36.3043 51.8573 35.9736 55.0069 34.7717 57.865C33.5698 60.7231 31.5502 63.1624 28.9666 64.8766C26.383 66.5908 23.3506 67.5035 20.25 67.5ZM20.25 9C18.4603 9.00179 16.7445 9.71352 15.479 10.979C14.2135 12.2445 13.5018 13.9603 13.5 15.75V42.7118L12.753 43.3845C11.054 44.9031 9.85617 46.9018 9.31811 49.1161C8.78005 51.3304 8.92712 53.6559 9.73985 55.7848C10.5526 57.9137 11.9926 59.7456 13.8694 61.038C15.7462 62.3304 17.9713 63.0224 20.25 63.0224C22.5288 63.0224 24.7538 62.3304 26.6306 61.038C28.5074 59.7456 29.9474 57.9137 30.7602 55.7848C31.5729 53.6559 31.72 51.3304 31.1819 49.1161C30.6438 46.9018 29.446 44.9031 27.747 43.3845L27 42.7118V15.75C26.9982 13.9603 26.2865 12.2445 25.021 10.979C23.7555 9.71352 22.0397 9.00179 20.25 9Z" fill="#345B92"/>
</svg>
