<svg width="45" height="20" viewBox="0 0 45 20" fill="none" xmlns="http://www.w3.org/2000/svg">
<path d="M21 0C21 0 15 7.64181 15 13.0485C15 17.314 17.3183 20 21 20C24.6817 20 27 17.314 27 13.0485C27 7.64181 21 0 21 0ZM21.6667 17.4897V16.3312C22.3295 16.3303 22.9649 16.0248 23.4336 15.4818C23.9023 14.9388 24.1659 14.2026 24.1667 13.4347H25.1667C25.1657 14.5098 24.7966 15.5406 24.1404 16.3008C23.4843 17.061 22.5946 17.4886 21.6667 17.4897Z" fill="#345B92"/>
<rect x="28" y="8" width="10" height="2" rx="1" fill="#345B92"/>
<path d="M1 8C1 7.44772 1.44772 7 2 7H10C10.5523 7 11 7.44772 11 8C11 8.55228 10.5523 9 10 9H2C1.44772 9 1 8.55228 1 8Z" fill="#345B92"/>
<rect x="32" y="12" width="10" height="2" rx="1" fill="#345B92"/>
<rect x="4" y="11" width="10" height="2" rx="1" fill="#345B92"/>
</svg>
