<svg width="19" height="23" viewBox="0 0 19 23" fill="none" xmlns="http://www.w3.org/2000/svg">
<path d="M9.375 0C11.8614 0 14.246 0.98772 16.0041 2.74587C17.7623 4.50403 18.75 6.8886 18.75 9.375C18.75 12.5771 17.0042 15.1979 15.1646 17.0781C14.2455 18.0074 13.2426 18.8498 12.1687 19.5948L11.725 19.8969L11.5167 20.0354L11.124 20.2854L10.774 20.499L10.3406 20.751C10.0465 20.9189 9.71367 21.0072 9.375 21.0072C9.03633 21.0072 8.70351 20.9189 8.40937 20.751L7.97604 20.499L7.43437 20.1656L7.23437 20.0354L6.80729 19.751C5.64878 18.9672 4.56969 18.072 3.58542 17.0781C1.74583 15.1969 0 12.5771 0 9.375C0 6.8886 0.98772 4.50403 2.74587 2.74587C4.50403 0.98772 6.8886 0 9.375 0ZM9.375 6.25C8.96462 6.25 8.55826 6.33083 8.17911 6.48788C7.79997 6.64492 7.45547 6.87511 7.16529 7.16529C6.87511 7.45547 6.64492 7.79997 6.48788 8.17912C6.33083 8.55826 6.25 8.96462 6.25 9.375C6.25 9.78538 6.33083 10.1917 6.48788 10.5709C6.64492 10.95 6.87511 11.2945 7.16529 11.5847C7.45547 11.8749 7.79997 12.1051 8.17911 12.2621C8.55826 12.4192 8.96462 12.5 9.375 12.5C10.2038 12.5 10.9987 12.1708 11.5847 11.5847C12.1708 10.9987 12.5 10.2038 12.5 9.375C12.5 8.5462 12.1708 7.75134 11.5847 7.16529C10.9987 6.57924 10.2038 6.25 9.375 6.25Z" fill="#0E0E0E"/>
</svg>
