<svg width="20" height="20" viewBox="0 0 20 20" fill="none" xmlns="http://www.w3.org/2000/svg">
<path d="M16.237 16.795L11.0187 11.5767C10.602 11.9317 10.1229 12.2064 9.58119 12.4009C9.03952 12.5953 8.49507 12.6925 7.94785 12.6925C6.61341 12.6925 5.48396 12.2306 4.55952 11.3067C3.63507 10.3828 3.17285 9.25365 3.17285 7.9192C3.17285 6.58476 3.63452 5.45504 4.55785 4.53004C5.48118 3.60504 6.61007 3.14198 7.94452 3.14087C9.27896 3.13976 10.409 3.60198 11.3345 4.52754C12.2601 5.45309 12.7229 6.58282 12.7229 7.9167C12.7229 8.49559 12.6204 9.05587 12.4154 9.59754C12.2104 10.1392 11.9409 10.6025 11.607 10.9875L16.8254 16.205L16.237 16.795ZM7.94868 11.8584C9.05424 11.8584 9.98757 11.4778 10.7487 10.7167C11.5098 9.95559 11.8904 9.02198 11.8904 7.91587C11.8904 6.80976 11.5098 5.87643 10.7487 5.11587C9.98757 4.35532 9.05424 3.97476 7.94868 3.9742C6.84313 3.97365 5.90952 4.3542 5.14785 5.11587C4.38618 5.87754 4.00563 6.81087 4.00618 7.91587C4.00674 9.02087 4.3873 9.95421 5.14785 10.7159C5.90841 11.4775 6.84174 11.8581 7.94785 11.8575" fill="#424242"/>
</svg>
