<svg width="21" height="21" viewBox="0 0 21 21" fill="none" xmlns="http://www.w3.org/2000/svg">
<path d="M11.6953 17.0752C11.8076 17.0753 11.9102 17.1299 11.9746 17.2207C12.0374 17.3115 12.0516 17.4272 12.0137 17.5312L10.8154 20.7783C10.7658 20.9106 10.6402 21 10.498 21C10.3561 20.9998 10.2302 20.9105 10.1807 20.7783L8.98242 17.5312C8.9463 17.4289 8.96172 17.3134 9.02441 17.2227C9.08715 17.1319 9.18923 17.0773 9.2998 17.0771L11.6953 17.0752ZM4.7041 14.209C4.81295 14.1909 4.92336 14.2253 5.00098 14.3027L6.69727 15.9961C6.77483 16.0738 6.81083 16.1849 6.79102 16.2939C6.78133 16.3475 6.75886 16.3984 6.72559 16.4414C6.69229 16.4843 6.64894 16.5182 6.59961 16.541L3.45801 17.9912C3.39533 18.0202 3.32482 18.0297 3.25684 18.0176C3.18888 18.0054 3.12593 17.9727 3.07715 17.9238C2.97637 17.8246 2.94832 17.6719 3.00781 17.543L4.45605 14.4004C4.50236 14.2997 4.5951 14.2288 4.7041 14.209ZM16.293 14.209C16.3467 14.2186 16.3973 14.241 16.4404 14.2744C16.4835 14.3078 16.5182 14.3509 16.541 14.4004L17.9883 17.543C18.0478 17.6719 18.0217 17.823 17.9209 17.9238C17.8565 17.9882 17.7701 18.0225 17.6826 18.0225C17.6332 18.0224 17.5855 18.0145 17.541 17.9932L14.3984 16.5449C14.2978 16.4986 14.2269 16.4042 14.207 16.2969C14.1872 16.1878 14.2241 16.0757 14.3018 15.998L15.9951 14.3027C16.0711 14.225 16.1839 14.1908 16.293 14.209ZM12.0234 13.1279C12.2762 13.128 12.5232 13.1945 12.7334 13.3184C12.9436 13.4423 13.1082 13.6182 13.2051 13.8242C13.3019 14.0304 13.3267 14.2577 13.2773 14.4766C13.228 14.6953 13.1064 14.896 12.9277 15.0537C12.7489 15.2115 12.5206 15.3197 12.2725 15.3633C12.0246 15.4067 11.7677 15.3841 11.5342 15.2988C11.3005 15.2134 11.1005 15.0683 10.96 14.8828C10.8196 14.6974 10.7442 14.4798 10.7441 14.2568V14.0518C10.7441 13.9702 10.707 13.8917 10.6416 13.834C10.5762 13.7764 10.4879 13.7432 10.3955 13.7432C10.303 13.7432 10.2139 13.7763 10.1484 13.834C10.0832 13.8917 10.0469 13.9703 10.0469 14.0518V14.2568C10.047 14.6015 10.1629 14.938 10.3799 15.2246C10.5971 15.5113 10.9055 15.7352 11.2666 15.8672C11.3694 15.9047 11.4755 15.9334 11.583 15.9551C11.2321 16.0244 10.8693 16.0625 10.498 16.0625C8.37696 16.0624 6.5331 14.8745 5.59473 13.1279H12.0234ZM10.498 4.93457C13.5704 4.93457 16.0613 7.42572 16.0615 10.4971C16.0615 12.3179 15.1866 13.9341 13.835 14.9492C13.8905 14.8362 13.9344 14.7187 13.9619 14.5967C14.0382 14.2585 13.9992 13.9075 13.8496 13.5889C13.7 13.2704 13.4461 12.9982 13.1211 12.8066C12.7961 12.6152 12.4142 12.5127 12.0234 12.5127H5.3125C5.23483 12.3129 5.16776 12.1077 5.11328 11.8975H12.0234C12.4142 11.8974 12.7961 11.795 13.1211 11.6035C13.4461 11.412 13.7 11.1398 13.8496 10.8213C13.9992 10.5027 14.0382 10.1517 13.9619 9.81348C13.8856 9.47534 13.6973 9.16469 13.4209 8.9209C13.1445 8.67714 12.7925 8.51065 12.4092 8.44336C12.0257 8.37608 11.6278 8.411 11.2666 8.54297C10.9055 8.67494 10.5971 8.89886 10.3799 9.18555C10.1627 9.47225 10.0469 9.8095 10.0469 10.1543V10.3594C10.047 10.4407 10.0833 10.5186 10.1484 10.5762C10.2139 10.6339 10.303 10.667 10.3955 10.667C10.4879 10.667 10.5762 10.6338 10.6416 10.5762C10.7069 10.5186 10.744 10.4408 10.7441 10.3594V10.1543C10.7441 9.93119 10.8195 9.71286 10.96 9.52734C11.1005 9.34181 11.3005 9.19672 11.5342 9.11133C11.7677 9.02611 12.0246 9.00346 12.2725 9.04688C12.5206 9.09041 12.7489 9.19866 12.9277 9.35645C13.1064 9.51415 13.228 9.71491 13.2773 9.93359C13.3267 10.1524 13.3019 10.3798 13.2051 10.5859C13.1083 10.792 12.9437 10.9679 12.7334 11.0918C12.5232 11.2156 12.2762 11.2822 12.0234 11.2822H4.99121C4.96273 11.0804 4.94568 10.8752 4.93945 10.667H7.83691C8.13573 10.667 8.42826 10.5887 8.67676 10.4424C8.92525 10.2959 9.11897 10.0873 9.2334 9.84375C9.34781 9.60011 9.37766 9.33188 9.31934 9.07324C9.26101 8.81468 9.11756 8.57706 8.90625 8.39062C8.69485 8.20415 8.42506 8.07684 8.13184 8.02539C7.83871 7.97402 7.5349 8.00069 7.25879 8.10156C6.98258 8.20248 6.74618 8.37351 6.58008 8.59277C6.41417 8.81189 6.32527 9.06951 6.3252 9.33301V9.47949C6.3252 9.56107 6.36235 9.63957 6.42773 9.69727C6.49315 9.75497 6.58229 9.78711 6.6748 9.78711C6.76716 9.78702 6.85558 9.75486 6.9209 9.69727C6.98632 9.63956 7.02344 9.5611 7.02344 9.47949V9.33301C7.02351 9.19121 7.07088 9.0525 7.16016 8.93457C7.24954 8.81657 7.37677 8.72427 7.52539 8.66992C7.67412 8.61558 7.8382 8.6012 7.99609 8.62891C8.15395 8.65661 8.29927 8.72482 8.41309 8.8252C8.52692 8.9256 8.60434 9.05409 8.63574 9.19336C8.66711 9.33259 8.65045 9.47725 8.58887 9.6084C8.52724 9.73942 8.42278 9.85185 8.28906 9.93066C8.1553 10.0094 7.99773 10.0518 7.83691 10.0518H4.9541C5.18126 7.18868 7.57588 4.93477 10.498 4.93457ZM3.62793 8.96484C3.68172 8.97186 3.73285 8.9924 3.77734 9.02344C3.82197 9.0546 3.85863 9.09626 3.88379 9.14453C3.90889 9.19276 3.92188 9.2464 3.92188 9.30078L3.92383 11.6963C3.92375 11.8069 3.86913 11.9109 3.77832 11.9736C3.72047 12.0133 3.65272 12.0352 3.58496 12.0352C3.54546 12.0352 3.50758 12.0284 3.46973 12.0137L0.22168 10.8164C0.156693 10.7926 0.100182 10.7491 0.0605469 10.6924C0.0210934 10.6357 0 10.5681 0 10.499C3.05815e-05 10.4299 0.0210315 10.3623 0.0605469 10.3057C0.100185 10.2489 0.156687 10.2055 0.22168 10.1816L3.46777 8.9834C3.51884 8.96465 3.57398 8.95786 3.62793 8.96484ZM17.5293 8.98535L20.7754 10.1816C20.9092 10.2313 20.9967 10.3573 21 10.4961C20.9999 10.6398 20.9105 10.7665 20.7783 10.8145L17.5322 12.0117C17.4943 12.0265 17.4546 12.0332 17.415 12.0332C17.3473 12.0332 17.2795 12.0116 17.2217 11.9736C17.1309 11.9108 17.0762 11.8069 17.0762 11.6963L17.0752 9.30078C17.0752 9.19002 17.1278 9.08723 17.2188 9.02441C17.3096 8.96173 17.4253 8.94736 17.5293 8.98535ZM17.5391 3.00586C17.668 2.948 17.8201 2.97435 17.9209 3.0752C18.0199 3.17604 18.0478 3.3262 17.9883 3.45508L16.541 6.59766C16.4931 6.69847 16.402 6.76921 16.293 6.78906C16.2731 6.79237 16.2532 6.79492 16.2334 6.79492C16.1458 6.7949 16.0579 6.75977 15.9951 6.69531L14.2998 5.00195C14.2239 4.92262 14.1872 4.81213 14.207 4.70312C14.2269 4.59416 14.2978 4.50141 14.3984 4.45508L17.5391 3.00586ZM3.07422 3.07617C3.17494 2.97554 3.32533 2.94756 3.4541 3.00684L6.59766 4.45508C6.69838 4.50132 6.77013 4.59385 6.79004 4.70117C6.80987 4.81028 6.77494 4.92163 6.69727 5.00098L5.00488 6.69531C4.96637 6.73381 4.91912 6.76293 4.86719 6.7793C4.81523 6.79562 4.75967 6.79857 4.70605 6.78906C4.65239 6.77949 4.60176 6.75692 4.55859 6.72363C4.51542 6.69032 4.4809 6.64716 4.45801 6.59766L3.00684 3.45703C2.94734 3.32809 2.9734 3.17701 3.07422 3.07617ZM10.498 0C10.6402 0 10.7658 0.0877743 10.8154 0.22168L12.0137 3.46484C12.0516 3.56884 12.0372 3.68617 11.9746 3.77539C11.9102 3.86631 11.807 3.9209 11.6963 3.9209H9.30176C9.19105 3.92087 9.0869 3.86825 9.02246 3.77734C8.95977 3.68651 8.94454 3.57084 8.98242 3.4668L10.1807 0.22168C10.2302 0.0895458 10.3561 0.000159561 10.498 0Z" fill="#345B92"/>
</svg>
