<svg width="84" height="65" viewBox="0 0 84 65" fill="none" xmlns="http://www.w3.org/2000/svg">
<g clip-path="url(#clip0_52_1915)">
<g filter="url(#filter0_f_52_1915)">
<path d="M27.9189 30.1903C29.8545 30.1903 31.6487 30.8576 33.1458 31.9939C33.9192 29.5428 35.3916 27.4562 37.3286 26.066C39.2656 24.6757 41.556 24.0617 43.8354 24.3216C45.9407 24.5703 47.9266 25.5532 49.5209 27.1355C51.1152 28.7178 52.2398 30.8221 52.7403 33.1596C53.1718 33.1185 53.6055 33.1185 54.037 33.1596C55.7846 33.3717 57.4175 34.2501 58.6698 35.6518C60.2904 34.5713 62.1711 34.1039 64.0406 34.3172C64.8021 34.4162 65.5488 34.6289 66.2615 34.9497C66.2686 34.8237 66.2521 34.7004 66.2615 34.5772C66.3802 33.25 66.7278 31.9625 67.2844 30.788C67.841 29.6136 68.5957 28.5753 69.5054 27.7325C70.4151 26.8896 71.4619 26.2587 72.5862 25.8758C73.7104 25.4928 74.89 25.3654 76.0576 25.5007C77.3376 25.6538 78.5732 26.121 79.6788 26.8701C80.7844 27.6192 81.7336 28.6323 82.461 29.8393C83.8813 29.329 85.3776 29.1495 86.8604 29.3114V48.9489C86.8604 51.0204 86.3181 52.9391 85.4222 54.5792C85.1746 54.5711 18.4883 46.8292 18.4883 40.9095C18.4883 34.9899 22.7108 30.1903 27.9189 30.1903Z" fill="#F5F8FA"/>
</g>
<g filter="url(#filter1_f_52_1915)">
<path d="M52.125 38.1049C50.8342 36.4963 48.8542 35.445 46.6064 35.445C43.5485 35.445 40.9698 37.3659 39.9944 40.0394C39.7025 39.9851 39.4064 39.9555 39.1094 39.9508C37.8537 39.9508 36.713 40.3923 35.7988 41.1027C34.7604 40.3556 33.5065 39.9521 32.2188 39.9508C31.6782 39.9508 31.1637 40.0409 30.6645 40.17C30.6676 40.0964 30.6875 40.0259 30.6875 39.9508C30.6875 38.3574 30.0422 36.8293 28.8935 35.7027C27.7449 34.576 26.187 33.9431 24.5625 33.9431C23.6804 33.9451 22.8092 34.1355 22.0096 34.5009C21.21 34.8664 20.5011 35.3981 19.932 36.0593C18.9765 35.6549 17.9469 35.4459 16.9062 35.445C16.6306 35.445 16.3703 35.4961 16.1023 35.5246C15.2957 33.5953 13.9223 31.9448 12.1568 30.783C10.3913 29.6213 8.31349 29.0007 6.1875 29.0002C4.33548 29.0009 2.51531 29.4729 0.904928 30.37C-0.705452 31.2672 -2.05094 32.5589 -3 34.1188L-3 54.4608L46.6064 52.28C46.6064 52.28 50.8342 50.2629 52.125 47.8253V38.1049Z" fill="#CCD6DD"/>
</g>
<g filter="url(#filter2_f_52_1915)">
<path d="M84.8459 64.2298V42.2363C83.5127 41.632 82.073 41.3185 80.6169 41.3153C78.4862 41.3176 76.4062 41.9856 74.6503 43.2314C72.8945 44.4773 71.5453 46.2426 70.7801 48.2951C69.1181 45.4338 66.1134 43.4978 62.6434 43.4978C61.0301 43.4978 59.5351 43.9496 58.2051 44.6808C57.4397 43.5086 56.3734 42.5794 55.1256 41.9971C53.8778 41.4148 52.4976 41.2024 51.1394 41.3836C49.7813 41.5648 48.4987 42.1325 47.4354 43.0231C46.372 43.9138 45.5697 45.0923 45.1183 46.4268C43.9703 45.9365 42.7405 45.6829 41.4982 45.6804C37.783 45.6804 34.5985 47.9022 33.0316 51.1062C31.7242 50.4177 30.2788 50.0544 28.811 50.0455C26.4109 50.0496 24.1021 50.9961 22.3533 52.6929C20.7293 50.5955 18.2638 49.227 15.4621 49.227C12.747 49.227 10.347 50.5169 8.72095 52.503V64.2298H84.8459Z" fill="#E1E8ED"/>
</g>
<g filter="url(#filter3_f_52_1915)">
<path d="M58.8716 40.611C56.936 40.611 55.1418 41.2783 53.6447 42.4145C52.8713 39.9635 51.399 37.8769 49.462 36.4866C47.5249 35.0964 45.2345 34.4824 42.9551 34.7423C40.8499 34.9909 38.8639 35.9738 37.2696 37.5561C35.6753 39.1385 34.5507 41.2427 34.0502 43.5802C33.6187 43.5392 33.185 43.5392 32.7535 43.5802C31.0059 43.7923 29.373 44.6708 28.1207 46.0724C26.5001 44.9919 24.6194 44.5246 22.75 44.7379C21.9884 44.8369 21.2417 45.0495 20.529 45.3703C20.522 45.2444 20.5385 45.1211 20.529 44.9978C20.4103 43.6707 20.0627 42.3831 19.5061 41.2087C18.9495 40.0343 18.1948 38.996 17.2851 38.1531C16.3755 37.3103 15.3286 36.6794 14.2044 36.2964C13.0801 35.9135 11.9005 35.786 10.733 35.9214C9.4529 36.0744 8.21736 36.5417 7.11176 37.2907C6.00616 38.0398 5.05688 39.0529 4.32957 40.2599C2.90923 39.7497 1.41295 39.5701 -0.0698242 39.732L-0.0698242 59.3696C-0.0698242 61.441 0.472437 63.3598 1.36835 64.9998C1.6159 64.9918 68.3023 57.2498 68.3023 51.3302C68.3023 45.4105 64.0797 40.611 58.8716 40.611Z" fill="#F5F8FA"/>
</g>
<path d="M83.8334 64.7503L76.7749 56.1227L71.5965 46.9691C71.5355 46.8606 71.4663 46.762 71.3901 46.675L64.8362 39.2519L60.9507 32.6827C60.906 32.6063 60.857 32.5351 60.8043 32.4697L53.9867 24.0871L45.6779 14.4867C45.4229 14.1922 45.0998 14.0418 44.7711 14.0645L42.5953 14.2172H37.2691C36.916 14.2173 36.5774 14.416 36.3277 14.7695L25.7646 29.7364L17.7753 39.1595C17.702 39.246 17.6355 39.3433 17.5769 39.4498L10.4624 52.3772L0.736758 64.7748C0.536224 65.0298 0.395067 65.3649 0.331948 65.7358C0.268829 66.1068 0.286719 66.4961 0.383254 66.8524C0.479789 67.2086 0.650422 67.515 0.872598 67.7311C1.09477 67.9471 1.35803 68.0626 1.62756 68.0623H82.9639C83.2355 68.0621 83.5006 67.9443 83.7236 67.7248C83.9466 67.5052 84.1169 67.1944 84.2115 66.8339C84.3061 66.4735 84.3206 66.0807 84.2531 65.7083C84.1855 65.3358 84.039 65.0016 83.8334 64.7503Z" fill="#183B01"/>
<path d="M66.2949 38.9509L62.6938 33.4966L54.1125 22.4091L46.4567 14.0623L44.212 14.2218H38.5436L35.2092 18.5461L27.0867 30.5195L19.2949 39.2527C19.8684 40.0099 24.2058 41.6089 25.5395 39.687C26.7826 37.8958 27.9056 37.4576 28.207 37.7651C28.5912 38.1553 27.6149 40.7172 26.8733 45.4527C26.4958 47.8609 26.5052 50.6745 26.8733 51.2184C27.4641 52.0891 28.207 51.2184 29.5408 49.2965L30.8745 47.3746C32.2083 45.4527 33.542 41.6089 34.8758 41.6089C36.2095 41.6089 36.2095 43.9133 36.2095 45.4527C36.2095 47.3746 36.0535 49.2735 36.2095 51.2184C36.3442 52.8943 36.2095 55.0623 37.5433 55.0623C38.8037 55.0623 40.2108 47.3746 41.5445 45.4527C42.8783 43.5308 45.5458 43.5308 46.8795 45.4527C48.2133 47.3746 50.8808 53.1404 52.2145 51.2184C56.2158 49.2965 53.5483 43.5308 54.882 43.5308C55.9517 43.5308 56.9427 44.8454 58.8833 47.3746C60.1637 49.0429 60.3544 49.9827 61.5508 51.2184C62.6511 52.3524 63.6981 53.6016 64.2183 53.1404C65.0479 52.4043 64.6291 47.3247 62.8845 43.5308C62.191 42.0221 62.1683 40.7844 62.8845 39.687C63.6714 38.4801 64.3343 38.1245 64.8078 38.3859L66.2949 38.9509Z" fill="#E7E7E7"/>
<path d="M83.7272 64.52L76.5415 55.7631L71.2612 46.4528L64.5706 38.8972L60.5817 32.167L53.7613 23.8068L45.4128 14.1866L43.1607 14.3415H37.8082L33.7939 20.0082L27.1032 29.4527L19.0745 38.8972L11.8527 51.9853L1.99072 64.52" stroke="black" stroke-width="0.5" stroke-linecap="round" stroke-linejoin="round"/>
<path d="M63.2325 39.0359C63.2325 39.5384 63.2325 39.0359 61.8943 40.9248C61.1517 41.9732 61.1985 43.2199 61.8943 44.7026C63.6446 48.4313 64.0648 53.4256 63.2325 54.1471C62.7106 54.6004 61.6602 53.3746 60.5562 52.2582C59.3559 51.0437 59.1646 50.1219 57.88 48.4804C55.933 45.9946 54.9388 44.7026 53.8656 44.7026C52.5275 44.7026 55.2037 50.3693 51.1894 52.2582C49.8513 54.1471 47.175 48.4804 45.8369 46.5915C44.4988 44.7026 41.8225 44.7026 40.4844 46.5915C39.1463 48.4804 37.7346 56.036 36.47 56.036C35.1319 56.036 35.2671 53.9053 35.1319 52.2582C34.9754 50.3485 35.1319 48.4804 35.1319 46.5915C35.1319 45.0804 35.1319 42.8137 33.7938 42.8137C32.4557 42.8137 31.1176 46.5915 29.7794 48.4804L28.4413 50.3693C27.1032 52.2582 26.3579 53.1158 25.7651 52.2582C25.3957 51.7255 25.3864 48.9583 25.7651 46.5915C26.5091 41.9373 27.4886 39.4194 27.1032 39.0359C26.8008 38.7337 25.6741 39.1644 24.4269 40.9248C23.0888 42.8137 19.6499 41.6691 19.0745 40.9248" stroke="black" stroke-width="0.5" stroke-linecap="round" stroke-linejoin="round"/>
<g filter="url(#filter4_f_52_1915)">
<path d="M59.3453 27.2821L57.3321 24.5092C57.7844 23.255 57.605 21.9855 56.7937 20.7004C55.9825 19.4154 54.7736 18.7726 53.1669 18.772L51.1538 15.999C51.6561 15.8529 52.1569 15.763 52.6561 15.7292C53.1553 15.6955 53.6793 15.7221 54.2282 15.809C56.2906 16.1356 57.9294 17.1359 59.1447 18.8099C60.36 20.4839 60.8037 22.3522 60.4759 24.4147C60.3887 24.9651 60.252 25.4726 60.0656 25.9373C59.8793 26.402 59.6392 26.8503 59.3453 27.2821ZM63.8012 33.3192L61.7749 30.6288C62.9463 29.9963 64.0129 29.2699 64.9749 28.4497C65.937 27.6294 66.8021 26.659 67.5704 25.5384C66.6357 22.5413 65.0122 20.0208 62.6998 17.9767C60.3874 15.9326 57.6507 14.6597 54.4897 14.1579C53.6922 14.0316 52.8998 13.9625 52.1125 13.9506C51.3251 13.9388 50.5427 13.9841 49.7654 14.0867L47.6134 11.1225C48.8149 10.8332 50.0255 10.665 51.245 10.6178C52.4646 10.5707 53.7205 10.65 55.0127 10.8558C59.1649 11.5134 62.6815 13.2478 65.5624 16.0589C68.4434 18.87 70.3226 22.2215 71.2002 26.1133C70.3106 27.6367 69.2398 29.0118 67.9879 30.2386C66.736 31.4654 65.3404 32.4923 63.8012 33.3192Z" fill="#345B92"/>
</g>
</g>
<defs>
<filter id="filter0_f_52_1915" x="14.4883" y="20.2633" width="76.3721" height="38.3158" filterUnits="userSpaceOnUse" color-interpolation-filters="sRGB">
<feFlood flood-opacity="0" result="BackgroundImageFix"/>
<feBlend mode="normal" in="SourceGraphic" in2="BackgroundImageFix" result="shape"/>
<feGaussianBlur stdDeviation="2" result="effect1_foregroundBlur_52_1915"/>
</filter>
<filter id="filter1_f_52_1915" x="-7" y="25.0002" width="63.125" height="33.4606" filterUnits="userSpaceOnUse" color-interpolation-filters="sRGB">
<feFlood flood-opacity="0" result="BackgroundImageFix"/>
<feBlend mode="normal" in="SourceGraphic" in2="BackgroundImageFix" result="shape"/>
<feGaussianBlur stdDeviation="2" result="effect1_foregroundBlur_52_1915"/>
</filter>
<filter id="filter2_f_52_1915" x="4.72095" y="37.3153" width="84.125" height="30.9146" filterUnits="userSpaceOnUse" color-interpolation-filters="sRGB">
<feFlood flood-opacity="0" result="BackgroundImageFix"/>
<feBlend mode="normal" in="SourceGraphic" in2="BackgroundImageFix" result="shape"/>
<feGaussianBlur stdDeviation="2" result="effect1_foregroundBlur_52_1915"/>
</filter>
<filter id="filter3_f_52_1915" x="-4.06982" y="30.684" width="76.3721" height="38.3158" filterUnits="userSpaceOnUse" color-interpolation-filters="sRGB">
<feFlood flood-opacity="0" result="BackgroundImageFix"/>
<feBlend mode="normal" in="SourceGraphic" in2="BackgroundImageFix" result="shape"/>
<feGaussianBlur stdDeviation="2" result="effect1_foregroundBlur_52_1915"/>
</filter>
<filter id="filter4_f_52_1915" x="46.5135" y="9.50461" width="25.7867" height="24.9146" filterUnits="userSpaceOnUse" color-interpolation-filters="sRGB">
<feFlood flood-opacity="0" result="BackgroundImageFix"/>
<feBlend mode="normal" in="SourceGraphic" in2="BackgroundImageFix" result="shape"/>
<feGaussianBlur stdDeviation="0.55" result="effect1_foregroundBlur_52_1915"/>
</filter>
<clipPath id="clip0_52_1915">
<rect width="84" height="65" fill="white"/>
</clipPath>
</defs>
</svg>
